<?xml version="1.0" encoding="iso-8859-1"?>
<!-- Uploaded to: SVG Repo, www.svgrepo.com, Generator: SVG Repo Mixer Tools -->
<svg fill="#000000" height="800px" width="800px" version="1.1" id="Layer_1" xmlns="http://www.w3.org/2000/svg" xmlns:xlink="http://www.w3.org/1999/xlink" 
	 viewBox="0 0 512 512" xml:space="preserve">
<g>
	<g>
		<g>
			<path d="M256,32c0-11.782-9.551-21.333-21.333-21.333H21.333C9.551,10.667,0,20.218,0,32v213.333
				c0,11.782,9.551,21.333,21.333,21.333h213.333c11.782,0,21.333-9.551,21.333-21.333V32z M213.333,224H42.667V53.333h170.667V224z
				"/>
			<path d="M69.739,372.986c11.648-1.664,19.755-12.459,18.091-24.128c-1.643-11.648-2.496-24.96-2.496-39.531
				c0-11.776-9.557-21.333-21.333-21.333s-21.333,9.557-21.333,21.333c0,16.576,0.981,31.893,2.944,45.547
				c1.515,10.645,10.624,18.325,21.077,18.325C67.691,373.199,68.715,373.135,69.739,372.986z"/>
			<path d="M213.333,437.327c-11.072,0-21.44-0.491-30.848-1.429c-11.648-1.365-22.187,7.339-23.381,19.072
				c-1.195,11.712,7.339,22.187,19.072,23.36c10.816,1.109,22.656,1.664,35.157,1.664c11.776,0,21.333-9.536,21.333-21.333
				C234.667,446.884,225.109,437.327,213.333,437.327z"/>
			<path d="M129.643,421.242c-10.005-5.589-17.92-12.757-24.256-21.845c-6.699-9.685-20.032-12.117-29.675-5.355
				c-9.685,6.72-12.075,20.011-5.355,29.696c9.941,14.336,22.869,26.005,38.421,34.731c3.285,1.835,6.869,2.731,10.411,2.731
				c7.467,0,14.72-3.947,18.624-10.901C143.573,440.015,139.925,427.002,129.643,421.242z"/>
			<path d="M424.156,184.486c1.664,11.648,2.517,24.939,2.517,39.509c0,11.776,9.536,21.333,21.333,21.333
				c11.776,0,21.333-9.557,21.333-21.333c0-16.576-1.003-31.893-2.944-45.547c-1.664-11.669-12.544-19.776-24.128-18.091
				C430.598,162.001,422.492,172.817,424.156,184.486z"/>
			<path d="M382.364,112.081c9.984,5.611,17.92,12.757,24.235,21.867c4.139,5.952,10.795,9.152,17.536,9.152
				c4.203,0,8.448-1.216,12.16-3.797c9.664-6.72,12.075-20.011,5.355-29.696c-9.963-14.336-22.869-26.027-38.421-34.731
				c-10.24-5.76-23.275-2.091-29.035,8.171C368.412,93.329,372.081,106.321,382.364,112.081z"/>
			<path d="M298.673,95.996c11.051,0,21.44,0.491,30.848,1.451c0.725,0.085,1.451,0.107,2.176,0.107
				c10.816,0,20.075-8.192,21.205-19.179c1.195-11.712-7.339-22.187-19.072-23.381c-10.837-1.088-22.656-1.664-35.157-1.664
				c-11.797,0-21.333,9.557-21.333,21.333S286.876,95.996,298.673,95.996z"/>
			<path d="M85.333,117.333H128c11.782,0,21.333-9.551,21.333-21.333c0-11.782-9.551-21.333-21.333-21.333H85.333
				C73.551,74.667,64,84.218,64,96C64,107.782,73.551,117.333,85.333,117.333z"/>
			<path d="M106.667,181.333c0,11.782,9.551,21.333,21.333,21.333h42.667c11.782,0,21.333-9.551,21.333-21.333
				c0-11.782-9.551-21.333-21.333-21.333H128C116.218,160,106.667,169.551,106.667,181.333z"/>
			<path d="M384,288c-69.724,0-128,23.305-128,64v85.333c0,40.695,58.276,64,128,64s128-23.305,128-64V352
				C512,311.305,453.724,288,384,288z M316.5,341.635c17.186-6.873,41.398-10.968,67.5-10.968c26.102,0,50.314,4.095,67.5,10.968
				c12.663,5.064,17.834,9.954,17.834,10.365s-5.171,5.301-17.834,10.365c-17.186,6.873-41.398,10.968-67.5,10.968
				c-26.102,0-50.314-4.095-67.5-10.968c-12.663-5.064-17.834-9.954-17.834-10.365S303.838,346.699,316.5,341.635z M469.333,437.333
				c0,0.411-5.171,5.301-17.834,10.365c-17.186,6.873-41.398,10.968-67.5,10.968c-26.102,0-50.314-4.095-67.5-10.968
				c-12.663-5.064-17.834-9.954-17.834-10.365v-35.941c0.084,0.035,0.174,0.068,0.258,0.103c1.338,0.557,2.697,1.101,4.084,1.628
				c0.019,0.007,0.039,0.014,0.058,0.021c1.39,0.527,2.808,1.036,4.245,1.531c0.11,0.038,0.219,0.077,0.329,0.115
				c1.388,0.475,2.801,0.933,4.231,1.379c0.184,0.057,0.366,0.116,0.551,0.173c1.394,0.43,2.81,0.844,4.242,1.245
				c0.226,0.063,0.452,0.127,0.679,0.19c1.42,0.393,2.859,0.771,4.314,1.136c0.241,0.06,0.482,0.12,0.723,0.18
				c1.464,0.361,2.943,0.71,4.44,1.044c0.231,0.052,0.464,0.102,0.696,0.153c1.527,0.335,3.068,0.658,4.627,0.964
				c0.186,0.037,0.375,0.071,0.562,0.108c1.619,0.313,3.252,0.614,4.904,0.897c0.092,0.016,0.186,0.03,0.278,0.046
				c1.682,0.285,3.379,0.555,5.093,0.808c0.076,0.011,0.151,0.023,0.227,0.035c1.698,0.249,3.414,0.479,5.142,0.696
				c0.186,0.023,0.37,0.048,0.556,0.071c1.667,0.206,3.35,0.394,5.043,0.569c0.249,0.026,0.497,0.052,0.746,0.078
				c1.665,0.168,3.342,0.32,5.029,0.459c0.276,0.023,0.552,0.045,0.829,0.067c1.685,0.133,3.379,0.253,5.085,0.357
				c0.272,0.017,0.545,0.032,0.818,0.048c1.726,0.101,3.461,0.188,5.207,0.258c0.239,0.01,0.479,0.017,0.718,0.027
				c1.794,0.068,3.595,0.123,5.407,0.16c0.159,0.003,0.319,0.005,0.478,0.008c1.902,0.035,3.813,0.056,5.733,0.056
				c1.921,0,3.831-0.021,5.733-0.056c0.159-0.003,0.319-0.004,0.479-0.008c1.812-0.036,3.613-0.091,5.407-0.16
				c0.239-0.009,0.479-0.017,0.718-0.027c1.746-0.071,3.481-0.158,5.207-0.258c0.273-0.016,0.546-0.031,0.818-0.048
				c1.705-0.104,3.4-0.223,5.084-0.357c0.277-0.022,0.553-0.044,0.83-0.067c1.687-0.139,3.364-0.291,5.028-0.459
				c0.25-0.025,0.498-0.052,0.747-0.078c1.693-0.175,3.375-0.364,5.042-0.569c0.186-0.023,0.371-0.048,0.556-0.071
				c1.727-0.217,3.443-0.447,5.141-0.696c0.077-0.011,0.153-0.024,0.229-0.035c1.713-0.253,3.409-0.522,5.09-0.807
				c0.093-0.016,0.187-0.03,0.28-0.046c1.651-0.282,3.283-0.583,4.902-0.896c0.188-0.036,0.377-0.071,0.564-0.108
				c1.559-0.306,3.099-0.628,4.625-0.963c0.233-0.051,0.466-0.101,0.698-0.153c1.496-0.334,2.975-0.682,4.439-1.044
				c0.242-0.06,0.483-0.119,0.723-0.18c1.455-0.365,2.893-0.744,4.313-1.136c0.228-0.063,0.454-0.127,0.681-0.191
				c1.431-0.402,2.846-0.815,4.24-1.245c0.185-0.057,0.368-0.116,0.553-0.174c1.429-0.446,2.842-0.904,4.229-1.379
				c0.111-0.038,0.219-0.077,0.329-0.115c1.436-0.495,2.853-1.004,4.243-1.531c0.02-0.008,0.041-0.015,0.061-0.023
				c1.386-0.526,2.744-1.07,4.082-1.626c0.085-0.036,0.175-0.068,0.26-0.104V437.333z"/>
		</g>
	</g>
</g>
</svg>